solid mold_insert_scan
  facet normal 0 0 0
    outer loop
      vertex 10 0 0
      vertex 9.8078527450561523 1.9509031772613525 0
      vertex 10 0 20
    endloop
  endfacet
  facet normal 0 0 0
    outer loop
      vertex 10 0 20
      vertex 9.8078527450561523 1.9509031772613525 0
      vertex 9.8078527450561523 1.9509031772613525 20
    endloop
  endfacet
  facet normal 0 0 0
    outer loop
      vertex 9.8078527450561523 1.9509031772613525 0
      vertex 9.238795280456543 3.8268344402313232 0
      vertex 9.8078527450561523 1.9509031772613525 20
    endloop
  endfacet
  facet normal 0 0 0
    outer loop
      vertex 9.8078527450561523 1.9509031772613525 20
      vertex 9.238795280456543 3.8268344402313232 0
      vertex 9.238795280456543 3.8268344402313232 20
    endloop
  endfacet
  facet normal 0 0 0
    outer loop
      vertex 9.238795280456543 3.8268344402313232 0
      vertex 8.3146963119506836 5.5557022094726562 0
      vertex 9.238795280456543 3.8268344402313232 20
    endloop
  endfacet
  facet normal 0 0 0
    outer loop
      vertex 9.238795280456543 3.8268344402313232 20
      vertex 8.3146963119506836 5.5557022094726562 0
      vertex 8.3146963119506836 5.5557022094726562 20
    endloop
  endfacet
  facet normal 0 0 0
    outer loop
      vertex 8.3146963119506836 5.5557022094726562 0
      vertex 7.0710678100585938 7.0710678100585938 0
      vertex 8.3146963119506836 5.5557022094726562 20
    endloop
  endfacet
  facet normal 0 0 0
    outer loop
      vertex 8.3146963119506836 5.5557022094726562 20
      vertex 7.0710678100585938 7.0710678100585938 0
      vertex 7.0710678100585938 7.0710678100585938 20
    endloop
  endfacet
  facet normal 0 0 0
    outer loop
      vertex 7.0710678100585938 7.0710678100585938 0
      vertex 5.5557022094726562 8.3146963119506836 0
      vertex 7.0710678100585938 7.0710678100585938 20
    endloop
  endfacet
  facet normal 0 0 0
    outer loop
      vertex 7.0710678100585938 7.0710678100585938 20
      vertex 5.5557022094726562 8.3146963119506836 0
      vertex 5.5557022094726562 8.3146963119506836 20
    endloop
  endfacet
  facet normal 0 0 0
    outer loop
      vertex 5.5557022094726562 8.3146963119506836 0
      vertex 3.8268344402313232 9.238795280456543 0
      vertex 5.5557022094726562 8.3146963119506836 20
    endloop
  endfacet
  facet normal 0 0 0
    outer loop
      vertex 5.5557022094726562 8.3146963119506836 20
      vertex 3.8268344402313232 9.238795280456543 0
      vertex 3.8268344402313232 9.238795280456543 20
    endloop
  endfacet
  facet normal 0 0 0
    outer loop
      vertex 3.8268344402313232 9.238795280456543 0
      vertex 1.9509031772613525 9.8078527450561523 0
      vertex 3.8268344402313232 9.238795280456543 20
    endloop
  endfacet
  facet normal 0 0 0
    outer loop
      vertex 3.8268344402313232 9.238795280456543 20
      vertex 1.9509031772613525 9.8078527450561523 0
      vertex 1.9509031772613525 9.8078527450561523 20
    endloop
  endfacet
  facet normal 0 0 0
    outer loop
      vertex 1.9509031772613525 9.8078527450561523 0
      vertex 6.1232339982280433e-16 10 0
      vertex 1.9509031772613525 9.8078527450561523 20
    endloop
  endfacet
  facet normal 0 0 0
    outer loop
      vertex 1.9509031772613525 9.8078527450561523 20
      vertex 6.1232339982280433e-16 10 0
      vertex 6.1232339982280433e-16 10 20
    endloop
  endfacet
  facet normal 0 0 0
    outer loop
      vertex 6.1232339982280433e-16 10 0
      vertex -1.9509031772613525 9.8078527450561523 0
      vertex 6.1232339982280433e-16 10 20
    endloop
  endfacet
  facet normal 0 0 0
    outer loop
      vertex 6.1232339982280433e-16 10 20
      vertex -1.9509031772613525 9.8078527450561523 0
      vertex -1.9509031772613525 9.8078527450561523 20
    endloop
  endfacet
  facet normal 0 0 0
    outer loop
      vertex -1.9509031772613525 9.8078527450561523 0
      vertex -3.8268344402313232 9.238795280456543 0
      vertex -1.9509031772613525 9.8078527450561523 20
    endloop
  endfacet
  facet normal 0 0 0
    outer loop
      vertex -1.9509031772613525 9.8078527450561523 20
      vertex -3.8268344402313232 9.238795280456543 0
      vertex -3.8268344402313232 9.238795280456543 20
    endloop
  endfacet
  facet normal 0 0 0
    outer loop
      vertex -3.8268344402313232 9.238795280456543 0
      vertex -5.5557022094726562 8.3146963119506836 0
      vertex -3.8268344402313232 9.238795280456543 20
    endloop
  endfacet
  facet normal 0 0 0
    outer loop
      vertex -3.8268344402313232 9.238795280456543 20
      vertex -5.5557022094726562 8.3146963119506836 0
      vertex -5.5557022094726562 8.3146963119506836 20
    endloop
  endfacet
  facet normal 0 0 0
    outer loop
      vertex -5.5557022094726562 8.3146963119506836 0
      vertex -7.0710678100585938 7.0710678100585938 0
      vertex -5.5557022094726562 8.3146963119506836 20
    endloop
  endfacet
  facet normal 0 0 0
    outer loop
      vertex -5.5557022094726562 8.3146963119506836 20
      vertex -7.0710678100585938 7.0710678100585938 0
      vertex -7.0710678100585938 7.0710678100585938 20
    endloop
  endfacet
  facet normal 0 0 0
    outer loop
      vertex -7.0710678100585938 7.0710678100585938 0
      vertex -8.3146963119506836 5.5557022094726562 0
      vertex -7.0710678100585938 7.0710678100585938 20
    endloop
  endfacet
  facet normal 0 0 0
    outer loop
      vertex -7.0710678100585938 7.0710678100585938 20
      vertex -8.3146963119506836 5.5557022094726562 0
      vertex -8.3146963119506836 5.5557022094726562 20
    endloop
  endfacet
  facet normal 0 0 0
    outer loop
      vertex -8.3146963119506836 5.5557022094726562 0
      vertex -9.238795280456543 3.8268344402313232 0
      vertex -8.3146963119506836 5.5557022094726562 20
    endloop
  endfacet
  facet normal 0 0 0
    outer loop
      vertex -8.3146963119506836 5.5557022094726562 20
      vertex -9.238795280456543 3.8268344402313232 0
      vertex -9.238795280456543 3.8268344402313232 20
    endloop
  endfacet
  facet normal 0 0 0
    outer loop
      vertex -9.238795280456543 3.8268344402313232 0
      vertex -9.8078527450561523 1.9509031772613525 0
      vertex -9.238795280456543 3.8268344402313232 20
    endloop
  endfacet
  facet normal 0 0 0
    outer loop
      vertex -9.238795280456543 3.8268344402313232 20
      vertex -9.8078527450561523 1.9509031772613525 0
      vertex -9.8078527450561523 1.9509031772613525 20
    endloop
  endfacet
  facet normal 0 0 0
    outer loop
      vertex -9.8078527450561523 1.9509031772613525 0
      vertex -10 1.2246467996456087e-15 0
      vertex -9.8078527450561523 1.9509031772613525 20
    endloop
  endfacet
  facet normal 0 0 0
    outer loop
      vertex -9.8078527450561523 1.9509031772613525 20
      vertex -10 1.2246467996456087e-15 0
      vertex -10 1.2246467996456087e-15 20
    endloop
  endfacet
  facet normal 0 0 0
    outer loop
      vertex -10 1.2246467996456087e-15 0
      vertex -9.8078527450561523 -1.9509031772613525 0
      vertex -10 1.2246467996456087e-15 20
    endloop
  endfacet
  facet normal 0 0 0
    outer loop
      vertex -10 1.2246467996456087e-15 20
      vertex -9.8078527450561523 -1.9509031772613525 0
      vertex -9.8078527450561523 -1.9509031772613525 20
    endloop
  endfacet
  facet normal 0 0 0
    outer loop
      vertex -9.8078527450561523 -1.9509031772613525 0
      vertex -9.238795280456543 -3.8268344402313232 0
      vertex -9.8078527450561523 -1.9509031772613525 20
    endloop
  endfacet
  facet normal 0 0 0
    outer loop
      vertex -9.8078527450561523 -1.9509031772613525 20
      vertex -9.238795280456543 -3.8268344402313232 0
      vertex -9.238795280456543 -3.8268344402313232 20
    endloop
  endfacet
  facet normal 0 0 0
    outer loop
      vertex -9.238795280456543 -3.8268344402313232 0
      vertex -8.3146963119506836 -5.5557022094726562 0
      vertex -9.238795280456543 -3.8268344402313232 20
    endloop
  endfacet
  facet normal 0 0 0
    outer loop
      vertex -9.238795280456543 -3.8268344402313232 20
      vertex -8.3146963119506836 -5.5557022094726562 0
      vertex -8.3146963119506836 -5.5557022094726562 20
    endloop
  endfacet
  facet normal 0 0 0
    outer loop
      vertex -8.3146963119506836 -5.5557022094726562 0
      vertex -7.0710678100585938 -7.0710678100585938 0
      vertex -8.3146963119506836 -5.5557022094726562 20
    endloop
  endfacet
  facet normal 0 0 0
    outer loop
      vertex -8.3146963119506836 -5.5557022094726562 20
      vertex -7.0710678100585938 -7.0710678100585938 0
      vertex -7.0710678100585938 -7.0710678100585938 20
    endloop
  endfacet
  facet normal 0 0 0
    outer loop
      vertex -7.0710678100585938 -7.0710678100585938 0
      vertex -5.5557022094726562 -8.3146963119506836 0
      vertex -7.0710678100585938 -7.0710678100585938 20
    endloop
  endfacet
  facet normal 0 0 0
    outer loop
      vertex -7.0710678100585938 -7.0710678100585938 20
      vertex -5.5557022094726562 -8.3146963119506836 0
      vertex -5.5557022094726562 -8.3146963119506836 20
    endloop
  endfacet
  facet normal 0 0 0
    outer loop
      vertex -5.5557022094726562 -8.3146963119506836 0
      vertex -3.8268344402313232 -9.238795280456543 0
      vertex -5.5557022094726562 -8.3146963119506836 20
    endloop
  endfacet
  facet normal 0 0 0
    outer loop
      vertex -5.5557022094726562 -8.3146963119506836 20
      vertex -3.8268344402313232 -9.238795280456543 0
      vertex -3.8268344402313232 -9.238795280456543 20
    endloop
  endfacet
  facet normal 0 0 0
    outer loop
      vertex -3.8268344402313232 -9.238795280456543 0
      vertex -1.9509031772613525 -9.8078527450561523 0
      vertex -3.8268344402313232 -9.238795280456543 20
    endloop
  endfacet
  facet normal 0 0 0
    outer loop
      vertex -3.8268344402313232 -9.238795280456543 20
      vertex -1.9509031772613525 -9.8078527450561523 0
      vertex -1.9509031772613525 -9.8078527450561523 20
    endloop
  endfacet
  facet normal 0 0 0
    outer loop
      vertex -1.9509031772613525 -9.8078527450561523 0
      vertex -1.8369700935892946e-15 -10 0
      vertex -1.9509031772613525 -9.8078527450561523 20
    endloop
  endfacet
  facet normal 0 0 0
    outer loop
      vertex -1.9509031772613525 -9.8078527450561523 20
      vertex -1.8369700935892946e-15 -10 0
      vertex -1.8369700935892946e-15 -10 20
    endloop
  endfacet
  facet normal 0 0 0
    outer loop
      vertex -1.8369700935892946e-15 -10 0
      vertex 1.9509031772613525 -9.8078527450561523 0
      vertex -1.8369700935892946e-15 -10 20
    endloop
  endfacet
  facet normal 0 0 0
    outer loop
      vertex -1.8369700935892946e-15 -10 20
      vertex 1.9509031772613525 -9.8078527450561523 0
      vertex 1.9509031772613525 -9.8078527450561523 20
    endloop
  endfacet
  facet normal 0 0 0
    outer loop
      vertex 1.9509031772613525 -9.8078527450561523 0
      vertex 3.8268344402313232 -9.238795280456543 0
      vertex 1.9509031772613525 -9.8078527450561523 20
    endloop
  endfacet
  facet normal 0 0 0
    outer loop
      vertex 1.9509031772613525 -9.8078527450561523 20
      vertex 3.8268344402313232 -9.238795280456543 0
      vertex 3.8268344402313232 -9.238795280456543 20
    endloop
  endfacet
  facet normal 0 0 0
    outer loop
      vertex 3.8268344402313232 -9.238795280456543 0
      vertex 5.5557022094726562 -8.3146963119506836 0
      vertex 3.8268344402313232 -9.238795280456543 20
    endloop
  endfacet
  facet normal 0 0 0
    outer loop
      vertex 3.8268344402313232 -9.238795280456543 20
      vertex 5.5557022094726562 -8.3146963119506836 0
      vertex 5.5557022094726562 -8.3146963119506836 20
    endloop
  endfacet
  facet normal 0 0 0
    outer loop
      vertex 5.5557022094726562 -8.3146963119506836 0
      vertex 7.0710678100585938 -7.0710678100585938 0
      vertex 5.5557022094726562 -8.3146963119506836 20
    endloop
  endfacet
  facet normal 0 0 0
    outer loop
      vertex 5.5557022094726562 -8.3146963119506836 20
      vertex 7.0710678100585938 -7.0710678100585938 0
      vertex 7.0710678100585938 -7.0710678100585938 20
    endloop
  endfacet
  facet normal 0 0 0
    outer loop
      vertex 7.0710678100585938 -7.0710678100585938 0
      vertex 8.3146963119506836 -5.5557022094726562 0
      vertex 7.0710678100585938 -7.0710678100585938 20
    endloop
  endfacet
  facet normal 0 0 0
    outer loop
      vertex 7.0710678100585938 -7.0710678100585938 20
      vertex 8.3146963119506836 -5.5557022094726562 0
      vertex 8.3146963119506836 -5.5557022094726562 20
    endloop
  endfacet
  facet normal 0 0 0
    outer loop
      vertex 8.3146963119506836 -5.5557022094726562 0
      vertex 9.238795280456543 -3.8268344402313232 0
      vertex 8.3146963119506836 -5.5557022094726562 20
    endloop
  endfacet
  facet normal 0 0 0
    outer loop
      vertex 8.3146963119506836 -5.5557022094726562 20
      vertex 9.238795280456543 -3.8268344402313232 0
      vertex 9.238795280456543 -3.8268344402313232 20
    endloop
  endfacet
  facet normal 0 0 0
    outer loop
      vertex 9.238795280456543 -3.8268344402313232 0
      vertex 9.8078527450561523 -1.9509031772613525 0
      vertex 9.238795280456543 -3.8268344402313232 20
    endloop
  endfacet
  facet normal 0 0 0
    outer loop
      vertex 9.238795280456543 -3.8268344402313232 20
      vertex 9.8078527450561523 -1.9509031772613525 0
      vertex 9.8078527450561523 -1.9509031772613525 20
    endloop
  endfacet
  facet normal 0 0 0
    outer loop
      vertex 9.8078527450561523 -1.9509031772613525 0
      vertex 10 0 0
      vertex 9.8078527450561523 -1.9509031772613525 20
    endloop
  endfacet
  facet normal 0 0 0
    outer loop
      vertex 9.8078527450561523 -1.9509031772613525 20
      vertex 10 0 0
      vertex 10 0 20
    endloop
  endfacet
  facet normal 0 0 0
    outer loop
      vertex 0 0 0
      vertex 9.8078527450561523 1.9509031772613525 0
      vertex 10 0 0
    endloop
  endfacet
  facet normal 0 0 0
    outer loop
      vertex 0 0 0
      vertex 9.238795280456543 3.8268344402313232 0
      vertex 9.8078527450561523 1.9509031772613525 0
    endloop
  endfacet
  facet normal 0 0 0
    outer loop
      vertex 0 0 0
      vertex 8.3146963119506836 5.5557022094726562 0
      vertex 9.238795280456543 3.8268344402313232 0
    endloop
  endfacet
  facet normal 0 0 0
    outer loop
      vertex 0 0 0
      vertex 7.0710678100585938 7.0710678100585938 0
      vertex 8.3146963119506836 5.5557022094726562 0
    endloop
  endfacet
  facet normal 0 0 0
    outer loop
      vertex 0 0 0
      vertex 5.5557022094726562 8.3146963119506836 0
      vertex 7.0710678100585938 7.0710678100585938 0
    endloop
  endfacet
  facet normal 0 0 0
    outer loop
      vertex 0 0 0
      vertex 3.8268344402313232 9.238795280456543 0
      vertex 5.5557022094726562 8.3146963119506836 0
    endloop
  endfacet
  facet normal 0 0 0
    outer loop
      vertex 0 0 0
      vertex 1.9509031772613525 9.8078527450561523 0
      vertex 3.8268344402313232 9.238795280456543 0
    endloop
  endfacet
  facet normal 0 0 0
    outer loop
      vertex 0 0 0
      vertex 6.1232339982280433e-16 10 0
      vertex 1.9509031772613525 9.8078527450561523 0
    endloop
  endfacet
  facet normal 0 0 0
    outer loop
      vertex 0 0 0
      vertex -1.9509031772613525 9.8078527450561523 0
      vertex 6.1232339982280433e-16 10 0
    endloop
  endfacet
  facet normal 0 0 0
    outer loop
      vertex 0 0 0
      vertex -3.8268344402313232 9.238795280456543 0
      vertex -1.9509031772613525 9.8078527450561523 0
    endloop
  endfacet
  facet normal 0 0 0
    outer loop
      vertex 0 0 0
      vertex -5.5557022094726562 8.3146963119506836 0
      vertex -3.8268344402313232 9.238795280456543 0
    endloop
  endfacet
  facet normal 0 0 0
    outer loop
      vertex 0 0 0
      vertex -7.0710678100585938 7.0710678100585938 0
      vertex -5.5557022094726562 8.3146963119506836 0
    endloop
  endfacet
  facet normal 0 0 0
    outer loop
      vertex 0 0 0
      vertex -8.3146963119506836 5.5557022094726562 0
      vertex -7.0710678100585938 7.0710678100585938 0
    endloop
  endfacet
  facet normal 0 0 0
    outer loop
      vertex 0 0 0
      vertex -9.238795280456543 3.8268344402313232 0
      vertex -8.3146963119506836 5.5557022094726562 0
    endloop
  endfacet
  facet normal 0 0 0
    outer loop
      vertex 0 0 0
      vertex -9.8078527450561523 1.9509031772613525 0
      vertex -9.238795280456543 3.8268344402313232 0
    endloop
  endfacet
  facet normal 0 0 0
    outer loop
      vertex 0 0 0
      vertex -10 1.2246467996456087e-15 0
      vertex -9.8078527450561523 1.9509031772613525 0
    endloop
  endfacet
  facet normal 0 0 0
    outer loop
      vertex 0 0 0
      vertex -9.8078527450561523 -1.9509031772613525 0
      vertex -10 1.2246467996456087e-15 0
    endloop
  endfacet
  facet normal 0 0 0
    outer loop
      vertex 0 0 0
      vertex -9.238795280456543 -3.8268344402313232 0
      vertex -9.8078527450561523 -1.9509031772613525 0
    endloop
  endfacet
  facet normal 0 0 0
    outer loop
      vertex 0 0 0
      vertex -8.3146963119506836 -5.5557022094726562 0
      vertex -9.238795280456543 -3.8268344402313232 0
    endloop
  endfacet
  facet normal 0 0 0
    outer loop
      vertex 0 0 0
      vertex -7.0710678100585938 -7.0710678100585938 0
      vertex -8.3146963119506836 -5.5557022094726562 0
    endloop
  endfacet
  facet normal 0 0 0
    outer loop
      vertex 0 0 0
      vertex -5.5557022094726562 -8.3146963119506836 0
      vertex -7.0710678100585938 -7.0710678100585938 0
    endloop
  endfacet
  facet normal 0 0 0
    outer loop
      vertex 0 0 0
      vertex -3.8268344402313232 -9.238795280456543 0
      vertex -5.5557022094726562 -8.3146963119506836 0
    endloop
  endfacet
  facet normal 0 0 0
    outer loop
      vertex 0 0 0
      vertex -1.9509031772613525 -9.8078527450561523 0
      vertex -3.8268344402313232 -9.238795280456543 0
    endloop
  endfacet
  facet normal 0 0 0
    outer loop
      vertex 0 0 0
      vertex -1.8369700935892946e-15 -10 0
      vertex -1.9509031772613525 -9.8078527450561523 0
    endloop
  endfacet
  facet normal 0 0 0
    outer loop
      vertex 0 0 0
      vertex 1.9509031772613525 -9.8078527450561523 0
      vertex -1.8369700935892946e-15 -10 0
    endloop
  endfacet
  facet normal 0 0 0
    outer loop
      vertex 0 0 0
      vertex 3.8268344402313232 -9.238795280456543 0
      vertex 1.9509031772613525 -9.8078527450561523 0
    endloop
  endfacet
  facet normal 0 0 0
    outer loop
      vertex 0 0 0
      vertex 5.5557022094726562 -8.3146963119506836 0
      vertex 3.8268344402313232 -9.238795280456543 0
    endloop
  endfacet
  facet normal 0 0 0
    outer loop
      vertex 0 0 0
      vertex 7.0710678100585938 -7.0710678100585938 0
      vertex 5.5557022094726562 -8.3146963119506836 0
    endloop
  endfacet
  facet normal 0 0 0
    outer loop
      vertex 0 0 0
      vertex 8.3146963119506836 -5.5557022094726562 0
      vertex 7.0710678100585938 -7.0710678100585938 0
    endloop
  endfacet
  facet normal 0 0 0
    outer loop
      vertex 0 0 0
      vertex 9.238795280456543 -3.8268344402313232 0
      vertex 8.3146963119506836 -5.5557022094726562 0
    endloop
  endfacet
  facet normal 0 0 0
    outer loop
      vertex 0 0 0
      vertex 9.8078527450561523 -1.9509031772613525 0
      vertex 9.238795280456543 -3.8268344402313232 0
    endloop
  endfacet
  facet normal 0 0 0
    outer loop
      vertex 0 0 0
      vertex 10 0 0
      vertex 9.8078527450561523 -1.9509031772613525 0
    endloop
  endfacet
  facet normal 0 0 0
    outer loop
      vertex 0 0 20
      vertex 10 0 20
      vertex 9.8078527450561523 1.9509031772613525 20
    endloop
  endfacet
  facet normal 0 0 0
    outer loop
      vertex 0 0 20
      vertex 9.8078527450561523 1.9509031772613525 20
      vertex 9.238795280456543 3.8268344402313232 20
    endloop
  endfacet
  facet normal 0 0 0
    outer loop
      vertex 0 0 20
      vertex 9.238795280456543 3.8268344402313232 20
      vertex 8.3146963119506836 5.5557022094726562 20
    endloop
  endfacet
  facet normal 0 0 0
    outer loop
      vertex 0 0 20
      vertex 8.3146963119506836 5.5557022094726562 20
      vertex 7.0710678100585938 7.0710678100585938 20
    endloop
  endfacet
  facet normal 0 0 0
    outer loop
      vertex 0 0 20
      vertex 7.0710678100585938 7.0710678100585938 20
      vertex 5.5557022094726562 8.3146963119506836 20
    endloop
  endfacet
  facet normal 0 0 0
    outer loop
      vertex 0 0 20
      vertex 5.5557022094726562 8.3146963119506836 20
      vertex 3.8268344402313232 9.238795280456543 20
    endloop
  endfacet
  facet normal 0 0 0
    outer loop
      vertex 0 0 20
      vertex 3.8268344402313232 9.238795280456543 20
      vertex 1.9509031772613525 9.8078527450561523 20
    endloop
  endfacet
  facet normal 0 0 0
    outer loop
      vertex 0 0 20
      vertex 1.9509031772613525 9.8078527450561523 20
      vertex 6.1232339982280433e-16 10 20
    endloop
  endfacet
  facet normal 0 0 0
    outer loop
      vertex 0 0 20
      vertex 6.1232339982280433e-16 10 20
      vertex -1.9509031772613525 9.8078527450561523 20
    endloop
  endfacet
  facet normal 0 0 0
    outer loop
      vertex 0 0 20
      vertex -1.9509031772613525 9.8078527450561523 20
      vertex -3.8268344402313232 9.238795280456543 20
    endloop
  endfacet
  facet normal 0 0 0
    outer loop
      vertex 0 0 20
      vertex -3.8268344402313232 9.238795280456543 20
      vertex -5.5557022094726562 8.3146963119506836 20
    endloop
  endfacet
  facet normal 0 0 0
    outer loop
      vertex 0 0 20
      vertex -5.5557022094726562 8.3146963119506836 20
      vertex -7.0710678100585938 7.0710678100585938 20
    endloop
  endfacet
  facet normal 0 0 0
    outer loop
      vertex 0 0 20
      vertex -7.0710678100585938 7.0710678100585938 20
      vertex -8.3146963119506836 5.5557022094726562 20
    endloop
  endfacet
  facet normal 0 0 0
    outer loop
      vertex 0 0 20
      vertex -8.3146963119506836 5.5557022094726562 20
      vertex -9.238795280456543 3.8268344402313232 20
    endloop
  endfacet
  facet normal 0 0 0
    outer loop
      vertex 0 0 20
      vertex -9.238795280456543 3.8268344402313232 20
      vertex -9.8078527450561523 1.9509031772613525 20
    endloop
  endfacet
  facet normal 0 0 0
    outer loop
      vertex 0 0 20
      vertex -9.8078527450561523 1.9509031772613525 20
      vertex -10 1.2246467996456087e-15 20
    endloop
  endfacet
  facet normal 0 0 0
    outer loop
      vertex 0 0 20
      vertex -10 1.2246467996456087e-15 20
      vertex -9.8078527450561523 -1.9509031772613525 20
    endloop
  endfacet
  facet normal 0 0 0
    outer loop
      vertex 0 0 20
      vertex -9.8078527450561523 -1.9509031772613525 20
      vertex -9.238795280456543 -3.8268344402313232 20
    endloop
  endfacet
  facet normal 0 0 0
    outer loop
      vertex 0 0 20
      vertex -9.238795280456543 -3.8268344402313232 20
      vertex -8.3146963119506836 -5.5557022094726562 20
    endloop
  endfacet
  facet normal 0 0 0
    outer loop
      vertex 0 0 20
      vertex -8.3146963119506836 -5.5557022094726562 20
      vertex -7.0710678100585938 -7.0710678100585938 20
    endloop
  endfacet
  facet normal 0 0 0
    outer loop
      vertex 0 0 20
      vertex -7.0710678100585938 -7.0710678100585938 20
      vertex -5.5557022094726562 -8.3146963119506836 20
    endloop
  endfacet
  facet normal 0 0 0
    outer loop
      vertex 0 0 20
      vertex -5.5557022094726562 -8.3146963119506836 20
      vertex -3.8268344402313232 -9.238795280456543 20
    endloop
  endfacet
  facet normal 0 0 0
    outer loop
      vertex 0 0 20
      vertex -3.8268344402313232 -9.238795280456543 20
      vertex -1.9509031772613525 -9.8078527450561523 20
    endloop
  endfacet
  facet normal 0 0 0
    outer loop
      vertex 0 0 20
      vertex -1.9509031772613525 -9.8078527450561523 20
      vertex -1.8369700935892946e-15 -10 20
    endloop
  endfacet
  facet normal 0 0 0
    outer loop
      vertex 0 0 20
      vertex -1.8369700935892946e-15 -10 20
      vertex 1.9509031772613525 -9.8078527450561523 20
    endloop
  endfacet
  facet normal 0 0 0
    outer loop
      vertex 0 0 20
      vertex 1.9509031772613525 -9.8078527450561523 20
      vertex 3.8268344402313232 -9.238795280456543 20
    endloop
  endfacet
  facet normal 0 0 0
    outer loop
      vertex 0 0 20
      vertex 3.8268344402313232 -9.238795280456543 20
      vertex 5.5557022094726562 -8.3146963119506836 20
    endloop
  endfacet
  facet normal 0 0 0
    outer loop
      vertex 0 0 20
      vertex 5.5557022094726562 -8.3146963119506836 20
      vertex 7.0710678100585938 -7.0710678100585938 20
    endloop
  endfacet
  facet normal 0 0 0
    outer loop
      vertex 0 0 20
      vertex 7.0710678100585938 -7.0710678100585938 20
      vertex 8.3146963119506836 -5.5557022094726562 20
    endloop
  endfacet
  facet normal 0 0 0
    outer loop
      vertex 0 0 20
      vertex 8.3146963119506836 -5.5557022094726562 20
      vertex 9.238795280456543 -3.8268344402313232 20
    endloop
  endfacet
  facet normal 0 0 0
    outer loop
      vertex 0 0 20
      vertex 9.238795280456543 -3.8268344402313232 20
      vertex 9.8078527450561523 -1.9509031772613525 20
    endloop
  endfacet
  facet normal 0 0 0
    outer loop
      vertex 0 0 20
      vertex 9.8078527450561523 -1.9509031772613525 20
      vertex 10 0 20
    endloop
  endfacet
  facet normal 0 0 0
    outer loop
      vertex 49.5 49.5 49.5
      vertex 50.5 49.5 49.5
      vertex 50.5 50.5 49.5
    endloop
  endfacet
  facet normal 0 0 0
    outer loop
      vertex 49.5 49.5 49.5
      vertex 50.5 50.5 49.5
      vertex 49.5 50.5 49.5
    endloop
  endfacet
  facet normal 0 0 0
    outer loop
      vertex 50.5 49.5 49.5
      vertex 50.5 49.5 50.5
      vertex 50.5 50.5 50.5
    endloop
  endfacet
  facet normal 0 0 0
    outer loop
      vertex 50.5 49.5 49.5
      vertex 50.5 50.5 50.5
      vertex 50.5 50.5 49.5
    endloop
  endfacet
  facet normal 0 0 0
    outer loop
      vertex 50.5 49.5 50.5
      vertex 49.5 49.5 50.5
      vertex 49.5 50.5 50.5
    endloop
  endfacet
  facet normal 0 0 0
    outer loop
      vertex 50.5 49.5 50.5
      vertex 49.5 50.5 50.5
      vertex 50.5 50.5 50.5
    endloop
  endfacet
  facet normal 0 0 0
    outer loop
      vertex 49.5 49.5 50.5
      vertex 49.5 49.5 49.5
      vertex 49.5 50.5 49.5
    endloop
  endfacet
  facet normal 0 0 0
    outer loop
      vertex 49.5 49.5 50.5
      vertex 49.5 50.5 49.5
      vertex 49.5 50.5 50.5
    endloop
  endfacet
  facet normal 0 0 0
    outer loop
      vertex 49.5 50.5 49.5
      vertex 50.5 50.5 49.5
      vertex 50.5 50.5 50.5
    endloop
  endfacet
  facet normal 0 0 0
    outer loop
      vertex 49.5 50.5 49.5
      vertex 50.5 50.5 50.5
      vertex 49.5 50.5 50.5
    endloop
  endfacet
  facet normal 0 0 0
    outer loop
      vertex 49.5 49.5 50.5
      vertex 50.5 49.5 50.5
      vertex 50.5 49.5 49.5
    endloop
  endfacet
  facet normal 0 0 0
    outer loop
      vertex 49.5 49.5 50.5
      vertex 50.5 49.5 49.5
      vertex 49.5 49.5 49.5
    endloop
  endfacet
  facet normal 0 0 0
    outer loop
      vertex -51 -51 -1
      vertex -49 -51 -1
      vertex -49 -49 -1
    endloop
  endfacet
  facet normal 0 0 0
    outer loop
      vertex -51 -51 -1
      vertex -49 -49 -1
      vertex -51 -49 -1
    endloop
  endfacet
  facet normal 0 0 0
    outer loop
      vertex -49 -51 -1
      vertex -49 -51 1
      vertex -49 -49 1
    endloop
  endfacet
  facet normal 0 0 0
    outer loop
      vertex -49 -51 -1
      vertex -49 -49 1
      vertex -49 -49 -1
    endloop
  endfacet
  facet normal 0 0 0
    outer loop
      vertex -49 -51 1
      vertex -51 -51 1
      vertex -51 -49 1
    endloop
  endfacet
  facet normal 0 0 0
    outer loop
      vertex -49 -51 1
      vertex -51 -49 1
      vertex -49 -49 1
    endloop
  endfacet
  facet normal 0 0 0
    outer loop
      vertex -51 -51 1
      vertex -51 -51 -1
      vertex -51 -49 -1
    endloop
  endfacet
  facet normal 0 0 0
    outer loop
      vertex -51 -51 1
      vertex -51 -49 -1
      vertex -51 -49 1
    endloop
  endfacet
  facet normal 0 0 0
    outer loop
      vertex -51 -49 -1
      vertex -49 -49 -1
      vertex -49 -49 1
    endloop
  endfacet
  facet normal 0 0 0
    outer loop
      vertex -51 -49 -1
      vertex -49 -49 1
      vertex -51 -49 1
    endloop
  endfacet
  facet normal 0 0 0
    outer loop
      vertex -51 -51 1
      vertex -49 -51 1
      vertex -49 -51 -1
    endloop
  endfacet
  facet normal 0 0 0
    outer loop
      vertex -51 -51 1
      vertex -49 -51 -1
      vertex -51 -51 -1
    endloop
  endfacet
  facet normal 0 0 0
    outer loop
      vertex 36.092929840087891 77.613143920898438 85.552497863769531
      vertex 36.092929840087891 73.751480102539062 81.690834045410156
      vertex 32.231266021728516 77.613143920898438 81.690834045410156
    endloop
  endfacet
  facet normal 0 0 0
    outer loop
      vertex 36.092929840087891 77.613143920898438 85.552497863769531
      vertex 32.231266021728516 77.613143920898438 81.690834045410156
      vertex 32.231266021728516 73.751480102539062 85.552497863769531
    endloop
  endfacet
  facet normal 0 0 0
    outer loop
      vertex 36.092929840087891 77.613143920898438 85.552497863769531
      vertex 32.231266021728516 73.751480102539062 85.552497863769531
      vertex 36.092929840087891 73.751480102539062 81.690834045410156
    endloop
  endfacet
  facet normal 0 0 0
    outer loop
      vertex 36.092929840087891 73.751480102539062 81.690834045410156
      vertex 32.231266021728516 73.751480102539062 85.552497863769531
      vertex 32.231266021728516 77.613143920898438 81.690834045410156
    endloop
  endfacet
  facet normal 0 0 0
    outer loop
      vertex -78.250625610351562 1.5421411991119385 7.2243547439575195
      vertex -78.250625610351562 -0.91526198387145996 4.7669510841369629
      vertex -80.708030700683594 1.5421411991119385 4.7669510841369629
    endloop
  endfacet
  facet normal 0 0 0
    outer loop
      vertex -78.250625610351562 1.5421411991119385 7.2243547439575195
      vertex -80.708030700683594 1.5421411991119385 4.7669510841369629
      vertex -80.708030700683594 -0.91526198387145996 7.2243547439575195
    endloop
  endfacet
  facet normal 0 0 0
    outer loop
      vertex -78.250625610351562 1.5421411991119385 7.2243547439575195
      vertex -80.708030700683594 -0.91526198387145996 7.2243547439575195
      vertex -78.250625610351562 -0.91526198387145996 4.7669510841369629
    endloop
  endfacet
  facet normal 0 0 0
    outer loop
      vertex -78.250625610351562 -0.91526198387145996 4.7669510841369629
      vertex -80.708030700683594 -0.91526198387145996 7.2243547439575195
      vertex -80.708030700683594 1.5421411991119385 4.7669510841369629
    endloop
  endfacet
  facet normal 0 0 0
    outer loop
      vertex -71.324241638183594 -29.028688430786133 94.70196533203125
      vertex -71.324241638183594 -30.358366012573242 93.372291564941406
      vertex -72.653915405273438 -29.028688430786133 93.372291564941406
    endloop
  endfacet
  facet normal 0 0 0
    outer loop
      vertex -71.324241638183594 -29.028688430786133 94.70196533203125
      vertex -72.653915405273438 -29.028688430786133 93.372291564941406
      vertex -72.653915405273438 -30.358366012573242 94.70196533203125
    endloop
  endfacet
  facet normal 0 0 0
    outer loop
      vertex -71.324241638183594 -29.028688430786133 94.70196533203125
      vertex -72.653915405273438 -30.358366012573242 94.70196533203125
      vertex -71.324241638183594 -30.358366012573242 93.372291564941406
    endloop
  endfacet
  facet normal 0 0 0
    outer loop
      vertex -71.324241638183594 -30.358366012573242 93.372291564941406
      vertex -72.653915405273438 -30.358366012573242 94.70196533203125
      vertex -72.653915405273438 -29.028688430786133 93.372291564941406
    endloop
  endfacet
  facet normal 0 0 0
    outer loop
      vertex 55.824180603027344 68.071273803710938 45.089492797851562
      vertex 55.824180603027344 66.268463134765625 43.28668212890625
      vertex 54.021369934082031 68.071273803710938 43.28668212890625
    endloop
  endfacet
  facet normal 0 0 0
    outer loop
      vertex 55.824180603027344 68.071273803710938 45.089492797851562
      vertex 54.021369934082031 68.071273803710938 43.28668212890625
      vertex 54.021369934082031 66.268463134765625 45.089492797851562
    endloop
  endfacet
  facet normal 0 0 0
    outer loop
      vertex 55.824180603027344 68.071273803710938 45.089492797851562
      vertex 54.021369934082031 66.268463134765625 45.089492797851562
      vertex 55.824180603027344 66.268463134765625 43.28668212890625
    endloop
  endfacet
  facet normal 0 0 0
    outer loop
      vertex 55.824180603027344 66.268463134765625 43.28668212890625
      vertex 54.021369934082031 66.268463134765625 45.089492797851562
      vertex 54.021369934082031 68.071273803710938 43.28668212890625
    endloop
  endfacet
  facet normal 0 0 0
    outer loop
      vertex -70.124244689941406 -90.816902160644531 -13.319657325744629
      vertex -70.124244689941406 -93.190353393554688 -15.693112373352051
      vertex -72.497703552246094 -90.816902160644531 -15.693112373352051
    endloop
  endfacet
  facet normal 0 0 0
    outer loop
      vertex -70.124244689941406 -90.816902160644531 -13.319657325744629
      vertex -72.497703552246094 -90.816902160644531 -15.693112373352051
      vertex -72.497703552246094 -93.190353393554688 -13.319657325744629
    endloop
  endfacet
  facet normal 0 0 0
    outer loop
      vertex -70.124244689941406 -90.816902160644531 -13.319657325744629
      vertex -72.497703552246094 -93.190353393554688 -13.319657325744629
      vertex -70.124244689941406 -93.190353393554688 -15.693112373352051
    endloop
  endfacet
  facet normal 0 0 0
    outer loop
      vertex -70.124244689941406 -93.190353393554688 -15.693112373352051
      vertex -72.497703552246094 -93.190353393554688 -13.319657325744629
      vertex -72.497703552246094 -90.816902160644531 -15.693112373352051
    endloop
  endfacet
  facet normal 0 0 0
    outer loop
      vertex 29.952304840087891 -63.834156036376953 27.742792129516602
      vertex 29.952304840087891 -67.683357238769531 23.893587112426758
      vertex 26.10310173034668 -63.834156036376953 23.893587112426758
    endloop
  endfacet
  facet normal 0 0 0
    outer loop
      vertex 29.952304840087891 -63.834156036376953 27.742792129516602
      vertex 26.10310173034668 -63.834156036376953 23.893587112426758
      vertex 26.10310173034668 -67.683357238769531 27.742792129516602
    endloop
  endfacet
  facet normal 0 0 0
    outer loop
      vertex 29.952304840087891 -63.834156036376953 27.742792129516602
      vertex 26.10310173034668 -67.683357238769531 27.742792129516602
      vertex 29.952304840087891 -67.683357238769531 23.893587112426758
    endloop
  endfacet
  facet normal 0 0 0
    outer loop
      vertex 29.952304840087891 -67.683357238769531 23.893587112426758
      vertex 26.10310173034668 -67.683357238769531 27.742792129516602
      vertex 26.10310173034668 -63.834156036376953 23.893587112426758
    endloop
  endfacet
  facet normal 0 0 0
    outer loop
      vertex -98.193916320800781 -34.893466949462891 63.920185089111328
      vertex -98.193916320800781 -36.941356658935547 61.872295379638672
      vertex -100.24180603027344 -34.893466949462891 61.872295379638672
    endloop
  endfacet
  facet normal 0 0 0
    outer loop
      vertex -98.193916320800781 -34.893466949462891 63.920185089111328
      vertex -100.24180603027344 -34.893466949462891 61.872295379638672
      vertex -100.24180603027344 -36.941356658935547 63.920185089111328
    endloop
  endfacet
  facet normal 0 0 0
    outer loop
      vertex -98.193916320800781 -34.893466949462891 63.920185089111328
      vertex -100.24180603027344 -36.941356658935547 63.920185089111328
      vertex -98.193916320800781 -36.941356658935547 61.872295379638672
    endloop
  endfacet
  facet normal 0 0 0
    outer loop
      vertex -98.193916320800781 -36.941356658935547 61.872295379638672
      vertex -100.24180603027344 -36.941356658935547 63.920185089111328
      vertex -100.24180603027344 -34.893466949462891 61.872295379638672
    endloop
  endfacet
  facet normal 0 0 0
    outer loop
      vertex 65.221115112304688 91.287994384765625 76.294784545898438
      vertex 65.221115112304688 89.235931396484375 74.242721557617188
      vertex 63.169052124023438 91.287994384765625 74.242721557617188
    endloop
  endfacet
  facet normal 0 0 0
    outer loop
      vertex 65.221115112304688 91.287994384765625 76.294784545898438
      vertex 63.169052124023438 91.287994384765625 74.242721557617188
      vertex 63.169052124023438 89.235931396484375 76.294784545898438
    endloop
  endfacet
  facet normal 0 0 0
    outer loop
      vertex 65.221115112304688 91.287994384765625 76.294784545898438
      vertex 63.169052124023438 89.235931396484375 76.294784545898438
      vertex 65.221115112304688 89.235931396484375 74.242721557617188
    endloop
  endfacet
  facet normal 0 0 0
    outer loop
      vertex 65.221115112304688 89.235931396484375 74.242721557617188
      vertex 63.169052124023438 89.235931396484375 76.294784545898438
      vertex 63.169052124023438 91.287994384765625 74.242721557617188
    endloop
  endfacet
  facet normal 0 0 0
    outer loop
      vertex 26.422632217407227 -32.216781616210938 -38.135623931884766
      vertex 26.422632217407227 -35.510631561279297 -41.429473876953125
      vertex 23.128780364990234 -32.216781616210938 -41.429473876953125
    endloop
  endfacet
  facet normal 0 0 0
    outer loop
      vertex 26.422632217407227 -32.216781616210938 -38.135623931884766
      vertex 23.128780364990234 -32.216781616210938 -41.429473876953125
      vertex 23.128780364990234 -35.510631561279297 -38.135623931884766
    endloop
  endfacet
  facet normal 0 0 0
    outer loop
      vertex 26.422632217407227 -32.216781616210938 -38.135623931884766
      vertex 23.128780364990234 -35.510631561279297 -38.135623931884766
      vertex 26.422632217407227 -35.510631561279297 -41.429473876953125
    endloop
  endfacet
  facet normal 0 0 0
    outer loop
      vertex 26.422632217407227 -35.510631561279297 -41.429473876953125
      vertex 23.128780364990234 -35.510631561279297 -38.135623931884766
      vertex 23.128780364990234 -32.216781616210938 -41.429473876953125
    endloop
  endfacet
  facet normal 0 0 0
    outer loop
      vertex 26.578897476196289 18.022666931152344 68.869804382324219
      vertex 26.578897476196289 16.596343994140625 67.4434814453125
      vertex 25.15257453918457 18.022666931152344 67.4434814453125
    endloop
  endfacet
  facet normal 0 0 0
    outer loop
      vertex 26.578897476196289 18.022666931152344 68.869804382324219
      vertex 25.15257453918457 18.022666931152344 67.4434814453125
      vertex 25.15257453918457 16.596343994140625 68.869804382324219
    endloop
  endfacet
  facet normal 0 0 0
    outer loop
      vertex 26.578897476196289 18.022666931152344 68.869804382324219
      vertex 25.15257453918457 16.596343994140625 68.869804382324219
      vertex 26.578897476196289 16.596343994140625 67.4434814453125
    endloop
  endfacet
  facet normal 0 0 0
    outer loop
      vertex 26.578897476196289 16.596343994140625 67.4434814453125
      vertex 25.15257453918457 16.596343994140625 68.869804382324219
      vertex 25.15257453918457 18.022666931152344 67.4434814453125
    endloop
  endfacet
  facet normal 0 0 0
    outer loop
      vertex 84.752189636230469 -33.831958770751953 -21.494470596313477
      vertex 84.752189636230469 -36.624889373779297 -24.287403106689453
      vertex 81.959259033203125 -33.831958770751953 -24.287403106689453
    endloop
  endfacet
  facet normal 0 0 0
    outer loop
      vertex 84.752189636230469 -33.831958770751953 -21.494470596313477
      vertex 81.959259033203125 -33.831958770751953 -24.287403106689453
      vertex 81.959259033203125 -36.624889373779297 -21.494470596313477
    endloop
  endfacet
  facet normal 0 0 0
    outer loop
      vertex 84.752189636230469 -33.831958770751953 -21.494470596313477
      vertex 81.959259033203125 -36.624889373779297 -21.494470596313477
      vertex 84.752189636230469 -36.624889373779297 -24.287403106689453
    endloop
  endfacet
  facet normal 0 0 0
    outer loop
      vertex 84.752189636230469 -36.624889373779297 -24.287403106689453
      vertex 81.959259033203125 -36.624889373779297 -21.494470596313477
      vertex 81.959259033203125 -33.831958770751953 -24.287403106689453
    endloop
  endfacet
  facet normal 0 0 0
    outer loop
      vertex 31.5557861328125 57.261356353759766 80.442535400390625
      vertex 31.5557861328125 54.107990264892578 77.289169311523438
      vertex 28.402420043945312 57.261356353759766 77.289169311523438
    endloop
  endfacet
  facet normal 0 0 0
    outer loop
      vertex 31.5557861328125 57.261356353759766 80.442535400390625
      vertex 28.402420043945312 57.261356353759766 77.289169311523438
      vertex 28.402420043945312 54.107990264892578 80.442535400390625
    endloop
  endfacet
  facet normal 0 0 0
    outer loop
      vertex 31.5557861328125 57.261356353759766 80.442535400390625
      vertex 28.402420043945312 54.107990264892578 80.442535400390625
      vertex 31.5557861328125 54.107990264892578 77.289169311523438
    endloop
  endfacet
  facet normal 0 0 0
    outer loop
      vertex 31.5557861328125 54.107990264892578 77.289169311523438
      vertex 28.402420043945312 54.107990264892578 80.442535400390625
      vertex 28.402420043945312 57.261356353759766 77.289169311523438
    endloop
  endfacet
  facet normal 0 0 0
    outer loop
      vertex 59.209590911865234 67.064468383789062 -3.2386341094970703
      vertex 59.209590911865234 64.939704895019531 -5.363398551940918
      vertex 57.084827423095703 67.064468383789062 -5.363398551940918
    endloop
  endfacet
  facet normal 0 0 0
    outer loop
      vertex 59.209590911865234 67.064468383789062 -3.2386341094970703
      vertex 57.084827423095703 67.064468383789062 -5.363398551940918
      vertex 57.084827423095703 64.939704895019531 -3.2386341094970703
    endloop
  endfacet
  facet normal 0 0 0
    outer loop
      vertex 59.209590911865234 67.064468383789062 -3.2386341094970703
      vertex 57.084827423095703 64.939704895019531 -3.2386341094970703
      vertex 59.209590911865234 64.939704895019531 -5.363398551940918
    endloop
  endfacet
  facet normal 0 0 0
    outer loop
      vertex 59.209590911865234 64.939704895019531 -5.363398551940918
      vertex 57.084827423095703 64.939704895019531 -3.2386341094970703
      vertex 57.084827423095703 67.064468383789062 -5.363398551940918
    endloop
  endfacet
  facet normal 0 0 0
    outer loop
      vertex -26.774267196655273 19.868976593017578 63.320053100585938
      vertex -26.774267196655273 17.513637542724609 60.964710235595703
      vertex -29.129606246948242 19.868976593017578 60.964710235595703
    endloop
  endfacet
  facet normal 0 0 0
    outer loop
      vertex -26.774267196655273 19.868976593017578 63.320053100585938
      vertex -29.129606246948242 19.868976593017578 60.964710235595703
      vertex -29.129606246948242 17.513637542724609 63.320053100585938
    endloop
  endfacet
  facet normal 0 0 0
    outer loop
      vertex -26.774267196655273 19.868976593017578 63.320053100585938
      vertex -29.129606246948242 17.513637542724609 63.320053100585938
      vertex -26.774267196655273 17.513637542724609 60.964710235595703
    endloop
  endfacet
  facet normal 0 0 0
    outer loop
      vertex -26.774267196655273 17.513637542724609 60.964710235595703
      vertex -29.129606246948242 17.513637542724609 63.320053100585938
      vertex -29.129606246948242 19.868976593017578 60.964710235595703
    endloop
  endfacet
  facet normal 0 0 0
    outer loop
      vertex 71.875289916992188 91.132095336914062 30.472795486450195
      vertex 71.875289916992188 88.351463317871094 27.692165374755859
      vertex 69.09466552734375 91.132095336914062 27.692165374755859
    endloop
  endfacet
  facet normal 0 0 0
    outer loop
      vertex 71.875289916992188 91.132095336914062 30.472795486450195
      vertex 69.09466552734375 91.132095336914062 27.692165374755859
      vertex 69.09466552734375 88.351463317871094 30.472795486450195
    endloop
  endfacet
  facet normal 0 0 0
    outer loop
      vertex 71.875289916992188 91.132095336914062 30.472795486450195
      vertex 69.09466552734375 88.351463317871094 30.472795486450195
      vertex 71.875289916992188 88.351463317871094 27.692165374755859
    endloop
  endfacet
  facet normal 0 0 0
    outer loop
      vertex 71.875289916992188 88.351463317871094 27.692165374755859
      vertex 69.09466552734375 88.351463317871094 30.472795486450195
      vertex 69.09466552734375 91.132095336914062 27.692165374755859
    endloop
  endfacet
  facet normal 0 0 0
    outer loop
      vertex 84.543632507324219 9.2629280090332031 83.44525146484375
      vertex 84.543632507324219 7.414879322052002 81.597198486328125
      vertex 82.695587158203125 9.2629280090332031 81.597198486328125
    endloop
  endfacet
  facet normal 0 0 0
    outer loop
      vertex 84.543632507324219 9.2629280090332031 83.44525146484375
      vertex 82.695587158203125 9.2629280090332031 81.597198486328125
      vertex 82.695587158203125 7.414879322052002 83.44525146484375
    endloop
  endfacet
  facet normal 0 0 0
    outer loop
      vertex 84.543632507324219 9.2629280090332031 83.44525146484375
      vertex 82.695587158203125 7.414879322052002 83.44525146484375
      vertex 84.543632507324219 7.414879322052002 81.597198486328125
    endloop
  endfacet
  facet normal 0 0 0
    outer loop
      vertex 84.543632507324219 7.414879322052002 81.597198486328125
      vertex 82.695587158203125 7.414879322052002 83.44525146484375
      vertex 82.695587158203125 9.2629280090332031 81.597198486328125
    endloop
  endfacet
  facet normal 0 0 0
    outer loop
      vertex -64.986480712890625 22.486932754516602 0.18893566727638245
      vertex -64.986480712890625 20.536699295043945 -1.7612982988357544
      vertex -66.936714172363281 22.486932754516602 -1.7612982988357544
    endloop
  endfacet
  facet normal 0 0 0
    outer loop
      vertex -64.986480712890625 22.486932754516602 0.18893566727638245
      vertex -66.936714172363281 22.486932754516602 -1.7612982988357544
      vertex -66.936714172363281 20.536699295043945 0.18893566727638245
    endloop
  endfacet
  facet normal 0 0 0
    outer loop
      vertex -64.986480712890625 22.486932754516602 0.18893566727638245
      vertex -66.936714172363281 20.536699295043945 0.18893566727638245
      vertex -64.986480712890625 20.536699295043945 -1.7612982988357544
    endloop
  endfacet
  facet normal 0 0 0
    outer loop
      vertex -64.986480712890625 20.536699295043945 -1.7612982988357544
      vertex -66.936714172363281 20.536699295043945 0.18893566727638245
      vertex -66.936714172363281 22.486932754516602 -1.7612982988357544
    endloop
  endfacet
  facet normal 0 0 0
    outer loop
      vertex -76.269302368164062 -31.428243637084961 52.031055450439453
      vertex -76.269302368164062 -33.907184600830078 49.552112579345703
      vertex -78.748245239257812 -31.428243637084961 49.552112579345703
    endloop
  endfacet
  facet normal 0 0 0
    outer loop
      vertex -76.269302368164062 -31.428243637084961 52.031055450439453
      vertex -78.748245239257812 -31.428243637084961 49.552112579345703
      vertex -78.748245239257812 -33.907184600830078 52.031055450439453
    endloop
  endfacet
  facet normal 0 0 0
    outer loop
      vertex -76.269302368164062 -31.428243637084961 52.031055450439453
      vertex -78.748245239257812 -33.907184600830078 52.031055450439453
      vertex -76.269302368164062 -33.907184600830078 49.552112579345703
    endloop
  endfacet
  facet normal 0 0 0
    outer loop
      vertex -76.269302368164062 -33.907184600830078 49.552112579345703
      vertex -78.748245239257812 -33.907184600830078 52.031055450439453
      vertex -78.748245239257812 -31.428243637084961 49.552112579345703
    endloop
  endfacet
  facet normal 0 0 0
    outer loop
      vertex -2.8689992427825928 -12.21529483795166 97.4385986328125
      vertex -2.8689992427825928 -15.010478019714355 94.643417358398438
      vertex -5.664182186126709 -12.21529483795166 94.643417358398438
    endloop
  endfacet
  facet normal 0 0 0
    outer loop
      vertex -2.8689992427825928 -12.21529483795166 97.4385986328125
      vertex -5.664182186126709 -12.21529483795166 94.643417358398438
      vertex -5.664182186126709 -15.010478019714355 97.4385986328125
    endloop
  endfacet
  facet normal 0 0 0
    outer loop
      vertex -2.8689992427825928 -12.21529483795166 97.4385986328125
      vertex -5.664182186126709 -15.010478019714355 97.4385986328125
      vertex -2.8689992427825928 -15.010478019714355 94.643417358398438
    endloop
  endfacet
  facet normal 0 0 0
    outer loop
      vertex -2.8689992427825928 -15.010478019714355 94.643417358398438
      vertex -5.664182186126709 -15.010478019714355 97.4385986328125
      vertex -5.664182186126709 -12.21529483795166 94.643417358398438
    endloop
  endfacet
  facet normal 0 0 0
    outer loop
      vertex 99.9296875 -34.461441040039062 61.080841064453125
      vertex 99.9296875 -38.348613739013672 57.193668365478516
      vertex 96.042518615722656 -34.461441040039062 57.193668365478516
    endloop
  endfacet
  facet normal 0 0 0
    outer loop
      vertex 99.9296875 -34.461441040039062 61.080841064453125
      vertex 96.042518615722656 -34.461441040039062 57.193668365478516
      vertex 96.042518615722656 -38.348613739013672 61.080841064453125
    endloop
  endfacet
  facet normal 0 0 0
    outer loop
      vertex 99.9296875 -34.461441040039062 61.080841064453125
      vertex 96.042518615722656 -38.348613739013672 61.080841064453125
      vertex 99.9296875 -38.348613739013672 57.193668365478516
    endloop
  endfacet
  facet normal 0 0 0
    outer loop
      vertex 99.9296875 -38.348613739013672 57.193668365478516
      vertex 96.042518615722656 -38.348613739013672 61.080841064453125
      vertex 96.042518615722656 -34.461441040039062 57.193668365478516
    endloop
  endfacet
  facet normal 0 0 0
    outer loop
      vertex 52.435924530029297 -85.071548461914062 65.233879089355469
      vertex 52.435924530029297 -87.552238464355469 62.753192901611328
      vertex 49.955234527587891 -85.071548461914062 62.753192901611328
    endloop
  endfacet
  facet normal 0 0 0
    outer loop
      vertex 52.435924530029297 -85.071548461914062 65.233879089355469
      vertex 49.955234527587891 -85.071548461914062 62.753192901611328
      vertex 49.955234527587891 -87.552238464355469 65.233879089355469
    endloop
  endfacet
  facet normal 0 0 0
    outer loop
      vertex 52.435924530029297 -85.071548461914062 65.233879089355469
      vertex 49.955234527587891 -87.552238464355469 65.233879089355469
      vertex 52.435924530029297 -87.552238464355469 62.753192901611328
    endloop
  endfacet
  facet normal 0 0 0
    outer loop
      vertex 52.435924530029297 -87.552238464355469 62.753192901611328
      vertex 49.955234527587891 -87.552238464355469 65.233879089355469
      vertex 49.955234527587891 -85.071548461914062 62.753192901611328
    endloop
  endfacet
  facet normal 0 0 0
    outer loop
      vertex 125.11381530761719 52.049278259277344 17.795446395874023
      vertex 125.11381530761719 48.94415283203125 14.690320014953613
      vertex 122.00868988037109 52.049278259277344 14.690320014953613
    endloop
  endfacet
  facet normal 0 0 0
    outer loop
      vertex 125.11381530761719 52.049278259277344 17.795446395874023
      vertex 122.00868988037109 52.049278259277344 14.690320014953613
      vertex 122.00868988037109 48.94415283203125 17.795446395874023
    endloop
  endfacet
  facet normal 0 0 0
    outer loop
      vertex 125.11381530761719 52.049278259277344 17.795446395874023
      vertex 122.00868988037109 48.94415283203125 17.795446395874023
      vertex 125.11381530761719 48.94415283203125 14.690320014953613
    endloop
  endfacet
  facet normal 0 0 0
    outer loop
      vertex 125.11381530761719 48.94415283203125 14.690320014953613
      vertex 122.00868988037109 48.94415283203125 17.795446395874023
      vertex 122.00868988037109 52.049278259277344 14.690320014953613
    endloop
  endfacet
  facet normal 0 0 0
    outer loop
      vertex -97.345115661621094 -51.312633514404297 49.191963195800781
      vertex -97.345115661621094 -53.915882110595703 46.588714599609375
      vertex -99.9483642578125 -51.312633514404297 46.588714599609375
    endloop
  endfacet
  facet normal 0 0 0
    outer loop
      vertex -97.345115661621094 -51.312633514404297 49.191963195800781
      vertex -99.9483642578125 -51.312633514404297 46.588714599609375
      vertex -99.9483642578125 -53.915882110595703 49.191963195800781
    endloop
  endfacet
  facet normal 0 0 0
    outer loop
      vertex -97.345115661621094 -51.312633514404297 49.191963195800781
      vertex -99.9483642578125 -53.915882110595703 49.191963195800781
      vertex -97.345115661621094 -53.915882110595703 46.588714599609375
    endloop
  endfacet
  facet normal 0 0 0
    outer loop
      vertex -97.345115661621094 -53.915882110595703 46.588714599609375
      vertex -99.9483642578125 -53.915882110595703 49.191963195800781
      vertex -99.9483642578125 -51.312633514404297 46.588714599609375
    endloop
  endfacet
  facet normal 0 0 0
    outer loop
      vertex 23.625082015991211 -87.555252075195312 29.922931671142578
      vertex 23.625082015991211 -91.466865539550781 26.011320114135742
      vertex 19.713470458984375 -87.555252075195312 26.011320114135742
    endloop
  endfacet
  facet normal 0 0 0
    outer loop
      vertex 23.625082015991211 -87.555252075195312 29.922931671142578
      vertex 19.713470458984375 -87.555252075195312 26.011320114135742
      vertex 19.713470458984375 -91.466865539550781 29.922931671142578
    endloop
  endfacet
  facet normal 0 0 0
    outer loop
      vertex 23.625082015991211 -87.555252075195312 29.922931671142578
      vertex 19.713470458984375 -91.466865539550781 29.922931671142578
      vertex 23.625082015991211 -91.466865539550781 26.011320114135742
    endloop
  endfacet
  facet normal 0 0 0
    outer loop
      vertex 23.625082015991211 -91.466865539550781 26.011320114135742
      vertex 19.713470458984375 -91.466865539550781 29.922931671142578
      vertex 19.713470458984375 -87.555252075195312 26.011320114135742
    endloop
  endfacet
  facet normal 0 0 0
    outer loop
      vertex 139.4364013671875 48.488498687744141 23.239103317260742
      vertex 139.4364013671875 46.365139007568359 21.115743637084961
      vertex 137.31304931640625 48.488498687744141 21.115743637084961
    endloop
  endfacet
  facet normal 0 0 0
    outer loop
      vertex 139.4364013671875 48.488498687744141 23.239103317260742
      vertex 137.31304931640625 48.488498687744141 21.115743637084961
      vertex 137.31304931640625 46.365139007568359 23.239103317260742
    endloop
  endfacet
  facet normal 0 0 0
    outer loop
      vertex 139.4364013671875 48.488498687744141 23.239103317260742
      vertex 137.31304931640625 46.365139007568359 23.239103317260742
      vertex 139.4364013671875 46.365139007568359 21.115743637084961
    endloop
  endfacet
  facet normal 0 0 0
    outer loop
      vertex 139.4364013671875 46.365139007568359 21.115743637084961
      vertex 137.31304931640625 46.365139007568359 23.239103317260742
      vertex 137.31304931640625 48.488498687744141 21.115743637084961
    endloop
  endfacet
  facet normal 0 0 0
    outer loop
      vertex -20.659746170043945 -61.312564849853516 43.685859680175781
      vertex -20.659746170043945 -64.046371459960938 40.952056884765625
      vertex -23.393547058105469 -61.312564849853516 40.952056884765625
    endloop
  endfacet
  facet normal 0 0 0
    outer loop
      vertex -20.659746170043945 -61.312564849853516 43.685859680175781
      vertex -23.393547058105469 -61.312564849853516 40.952056884765625
      vertex -23.393547058105469 -64.046371459960938 43.685859680175781
    endloop
  endfacet
  facet normal 0 0 0
    outer loop
      vertex -20.659746170043945 -61.312564849853516 43.685859680175781
      vertex -23.393547058105469 -64.046371459960938 43.685859680175781
      vertex -20.659746170043945 -64.046371459960938 40.952056884765625
    endloop
  endfacet
  facet normal 0 0 0
    outer loop
      vertex -20.659746170043945 -64.046371459960938 40.952056884765625
      vertex -23.393547058105469 -64.046371459960938 43.685859680175781
      vertex -23.393547058105469 -61.312564849853516 40.952056884765625
    endloop
  endfacet
  facet normal 0 0 0
    outer loop
      vertex -26.081981658935547 -61.584438323974609 -7.8734269142150879
      vertex -26.081981658935547 -64.522178649902344 -10.811168670654297
      vertex -29.019723892211914 -61.584438323974609 -10.811168670654297
    endloop
  endfacet
  facet normal 0 0 0
    outer loop
      vertex -26.081981658935547 -61.584438323974609 -7.8734269142150879
      vertex -29.019723892211914 -61.584438323974609 -10.811168670654297
      vertex -29.019723892211914 -64.522178649902344 -7.8734269142150879
    endloop
  endfacet
  facet normal 0 0 0
    outer loop
      vertex -26.081981658935547 -61.584438323974609 -7.8734269142150879
      vertex -29.019723892211914 -64.522178649902344 -7.8734269142150879
      vertex -26.081981658935547 -64.522178649902344 -10.811168670654297
    endloop
  endfacet
  facet normal 0 0 0
    outer loop
      vertex -26.081981658935547 -64.522178649902344 -10.811168670654297
      vertex -29.019723892211914 -64.522178649902344 -7.8734269142150879
      vertex -29.019723892211914 -61.584438323974609 -10.811168670654297
    endloop
  endfacet
  facet normal 0 0 0
    outer loop
      vertex -12.708359718322754 64.026290893554688 17.564693450927734
      vertex -12.708359718322754 62.967872619628906 16.506275177001953
      vertex -13.766777992248535 64.026290893554688 16.506275177001953
    endloop
  endfacet
  facet normal 0 0 0
    outer loop
      vertex -12.708359718322754 64.026290893554688 17.564693450927734
      vertex -13.766777992248535 64.026290893554688 16.506275177001953
      vertex -13.766777992248535 62.967872619628906 17.564693450927734
    endloop
  endfacet
  facet normal 0 0 0
    outer loop
      vertex -12.708359718322754 64.026290893554688 17.564693450927734
      vertex -13.766777992248535 62.967872619628906 17.564693450927734
      vertex -12.708359718322754 62.967872619628906 16.506275177001953
    endloop
  endfacet
  facet normal 0 0 0
    outer loop
      vertex -12.708359718322754 62.967872619628906 16.506275177001953
      vertex -13.766777992248535 62.967872619628906 17.564693450927734
      vertex -13.766777992248535 64.026290893554688 16.506275177001953
    endloop
  endfacet
  facet normal 0 0 0
    outer loop
      vertex -33.797042846679688 94.096244812011719 -25.309223175048828
      vertex -33.797042846679688 91.172737121582031 -28.232728958129883
      vertex -36.720550537109375 94.096244812011719 -28.232728958129883
    endloop
  endfacet
  facet normal 0 0 0
    outer loop
      vertex -33.797042846679688 94.096244812011719 -25.309223175048828
      vertex -36.720550537109375 94.096244812011719 -28.232728958129883
      vertex -36.720550537109375 91.172737121582031 -25.309223175048828
    endloop
  endfacet
  facet normal 0 0 0
    outer loop
      vertex -33.797042846679688 94.096244812011719 -25.309223175048828
      vertex -36.720550537109375 91.172737121582031 -25.309223175048828
      vertex -33.797042846679688 91.172737121582031 -28.232728958129883
    endloop
  endfacet
  facet normal 0 0 0
    outer loop
      vertex -33.797042846679688 91.172737121582031 -28.232728958129883
      vertex -36.720550537109375 91.172737121582031 -25.309223175048828
      vertex -36.720550537109375 94.096244812011719 -28.232728958129883
    endloop
  endfacet
  facet normal 0 0 0
    outer loop
      vertex 41.676536560058594 -80.390365600585938 -8.9760332107543945
      vertex 41.676536560058594 -82.318817138671875 -10.904481887817383
      vertex 39.748085021972656 -80.390365600585938 -10.904481887817383
    endloop
  endfacet
  facet normal 0 0 0
    outer loop
      vertex 41.676536560058594 -80.390365600585938 -8.9760332107543945
      vertex 39.748085021972656 -80.390365600585938 -10.904481887817383
      vertex 39.748085021972656 -82.318817138671875 -8.9760332107543945
    endloop
  endfacet
  facet normal 0 0 0
    outer loop
      vertex 41.676536560058594 -80.390365600585938 -8.9760332107543945
      vertex 39.748085021972656 -82.318817138671875 -8.9760332107543945
      vertex 41.676536560058594 -82.318817138671875 -10.904481887817383
    endloop
  endfacet
  facet normal 0 0 0
    outer loop
      vertex 41.676536560058594 -82.318817138671875 -10.904481887817383
      vertex 39.748085021972656 -82.318817138671875 -8.9760332107543945
      vertex 39.748085021972656 -80.390365600585938 -10.904481887817383
    endloop
  endfacet
  facet normal 0 0 0
    outer loop
      vertex -50.647193908691406 -42.523708343505859 -18.154951095581055
      vertex -50.647193908691406 -45.061389923095703 -20.692634582519531
      vertex -53.184879302978516 -42.523708343505859 -20.692634582519531
    endloop
  endfacet
  facet normal 0 0 0
    outer loop
      vertex -50.647193908691406 -42.523708343505859 -18.154951095581055
      vertex -53.184879302978516 -42.523708343505859 -20.692634582519531
      vertex -53.184879302978516 -45.061389923095703 -18.154951095581055
    endloop
  endfacet
  facet normal 0 0 0
    outer loop
      vertex -50.647193908691406 -42.523708343505859 -18.154951095581055
      vertex -53.184879302978516 -45.061389923095703 -18.154951095581055
      vertex -50.647193908691406 -45.061389923095703 -20.692634582519531
    endloop
  endfacet
  facet normal 0 0 0
    outer loop
      vertex -50.647193908691406 -45.061389923095703 -20.692634582519531
      vertex -53.184879302978516 -45.061389923095703 -18.154951095581055
      vertex -53.184879302978516 -42.523708343505859 -20.692634582519531
    endloop
  endfacet
  facet normal 0 0 0
    outer loop
      vertex -6.288874626159668 -94.914970397949219 37.084976196289062
      vertex -6.288874626159668 -97.05303955078125 34.946903228759766
      vertex -8.4269485473632812 -94.914970397949219 34.946903228759766
    endloop
  endfacet
  facet normal 0 0 0
    outer loop
      vertex -6.288874626159668 -94.914970397949219 37.084976196289062
      vertex -8.4269485473632812 -94.914970397949219 34.946903228759766
      vertex -8.4269485473632812 -97.05303955078125 37.084976196289062
    endloop
  endfacet
  facet normal 0 0 0
    outer loop
      vertex -6.288874626159668 -94.914970397949219 37.084976196289062
      vertex -8.4269485473632812 -97.05303955078125 37.084976196289062
      vertex -6.288874626159668 -97.05303955078125 34.946903228759766
    endloop
  endfacet
  facet normal 0 0 0
    outer loop
      vertex -6.288874626159668 -97.05303955078125 34.946903228759766
      vertex -8.4269485473632812 -97.05303955078125 37.084976196289062
      vertex -8.4269485473632812 -94.914970397949219 34.946903228759766
    endloop
  endfacet
  facet normal 0 0 0
    outer loop
      vertex -60.334747314453125 78.038467407226562 80.303146362304688
      vertex -60.334747314453125 75.175064086914062 77.439743041992188
      vertex -63.198150634765625 78.038467407226562 77.439743041992188
    endloop
  endfacet
  facet normal 0 0 0
    outer loop
      vertex -60.334747314453125 78.038467407226562 80.303146362304688
      vertex -63.198150634765625 78.038467407226562 77.439743041992188
      vertex -63.198150634765625 75.175064086914062 80.303146362304688
    endloop
  endfacet
  facet normal 0 0 0
    outer loop
      vertex -60.334747314453125 78.038467407226562 80.303146362304688
      vertex -63.198150634765625 75.175064086914062 80.303146362304688
      vertex -60.334747314453125 75.175064086914062 77.439743041992188
    endloop
  endfacet
  facet normal 0 0 0
    outer loop
      vertex -60.334747314453125 75.175064086914062 77.439743041992188
      vertex -63.198150634765625 75.175064086914062 80.303146362304688
      vertex -63.198150634765625 78.038467407226562 77.439743041992188
    endloop
  endfacet
  facet normal 0 0 0
    outer loop
      vertex -66.212501525878906 -64.267166137695312 4.3075094223022461
      vertex -66.212501525878906 -65.734039306640625 2.8406369686126709
      vertex -67.679374694824219 -64.267166137695312 2.8406369686126709
    endloop
  endfacet
  facet normal 0 0 0
    outer loop
      vertex -66.212501525878906 -64.267166137695312 4.3075094223022461
      vertex -67.679374694824219 -64.267166137695312 2.8406369686126709
      vertex -67.679374694824219 -65.734039306640625 4.3075094223022461
    endloop
  endfacet
  facet normal 0 0 0
    outer loop
      vertex -66.212501525878906 -64.267166137695312 4.3075094223022461
      vertex -67.679374694824219 -65.734039306640625 4.3075094223022461
      vertex -66.212501525878906 -65.734039306640625 2.8406369686126709
    endloop
  endfacet
  facet normal 0 0 0
    outer loop
      vertex -66.212501525878906 -65.734039306640625 2.8406369686126709
      vertex -67.679374694824219 -65.734039306640625 4.3075094223022461
      vertex -67.679374694824219 -64.267166137695312 2.8406369686126709
    endloop
  endfacet
  facet normal 0 0 0
    outer loop
      vertex -31.650930404663086 -49.134933471679688 92.840950012207031
      vertex -31.650930404663086 -51.160324096679688 90.8155517578125
      vertex -33.676322937011719 -49.134933471679688 90.8155517578125
    endloop
  endfacet
  facet normal 0 0 0
    outer loop
      vertex -31.650930404663086 -49.134933471679688 92.840950012207031
      vertex -33.676322937011719 -49.134933471679688 90.8155517578125
      vertex -33.676322937011719 -51.160324096679688 92.840950012207031
    endloop
  endfacet
  facet normal 0 0 0
    outer loop
      vertex -31.650930404663086 -49.134933471679688 92.840950012207031
      vertex -33.676322937011719 -51.160324096679688 92.840950012207031
      vertex -31.650930404663086 -51.160324096679688 90.8155517578125
    endloop
  endfacet
  facet normal 0 0 0
    outer loop
      vertex -31.650930404663086 -51.160324096679688 90.8155517578125
      vertex -33.676322937011719 -51.160324096679688 92.840950012207031
      vertex -33.676322937011719 -49.134933471679688 90.8155517578125
    endloop
  endfacet
  facet normal 0 0 0
    outer loop
      vertex -146.05430603027344 26.828405380249023 15.543292999267578
      vertex -146.05430603027344 23.803838729858398 12.518725395202637
      vertex -149.07887268066406 26.828405380249023 12.518725395202637
    endloop
  endfacet
  facet normal 0 0 0
    outer loop
      vertex -146.05430603027344 26.828405380249023 15.543292999267578
      vertex -149.07887268066406 26.828405380249023 12.518725395202637
      vertex -149.07887268066406 23.803838729858398 15.543292999267578
    endloop
  endfacet
  facet normal 0 0 0
    outer loop
      vertex -146.05430603027344 26.828405380249023 15.543292999267578
      vertex -149.07887268066406 23.803838729858398 15.543292999267578
      vertex -146.05430603027344 23.803838729858398 12.518725395202637
    endloop
  endfacet
  facet normal 0 0 0
    outer loop
      vertex -146.05430603027344 23.803838729858398 12.518725395202637
      vertex -149.07887268066406 23.803838729858398 15.543292999267578
      vertex -149.07887268066406 26.828405380249023 12.518725395202637
    endloop
  endfacet
  facet normal 0 0 0
    outer loop
      vertex -19.331388473510742 3.8863742351531982 -46.626304626464844
      vertex -19.331388473510742 1.2520712614059448 -49.260608673095703
      vertex -21.965690612792969 3.8863742351531982 -49.260608673095703
    endloop
  endfacet
  facet normal 0 0 0
    outer loop
      vertex -19.331388473510742 3.8863742351531982 -46.626304626464844
      vertex -21.965690612792969 3.8863742351531982 -49.260608673095703
      vertex -21.965690612792969 1.2520712614059448 -46.626304626464844
    endloop
  endfacet
  facet normal 0 0 0
    outer loop
      vertex -19.331388473510742 3.8863742351531982 -46.626304626464844
      vertex -21.965690612792969 1.2520712614059448 -46.626304626464844
      vertex -19.331388473510742 1.2520712614059448 -49.260608673095703
    endloop
  endfacet
  facet normal 0 0 0
    outer loop
      vertex -19.331388473510742 1.2520712614059448 -49.260608673095703
      vertex -21.965690612792969 1.2520712614059448 -46.626304626464844
      vertex -21.965690612792969 3.8863742351531982 -49.260608673095703
    endloop
  endfacet
  facet normal 0 0 0
    outer loop
      vertex -30.210357666015625 77.876724243164062 -7.9860310554504395
      vertex -30.210357666015625 73.985832214355469 -11.876925468444824
      vertex -34.101253509521484 77.876724243164062 -11.876925468444824
    endloop
  endfacet
  facet normal 0 0 0
    outer loop
      vertex -30.210357666015625 77.876724243164062 -7.9860310554504395
      vertex -34.101253509521484 77.876724243164062 -11.876925468444824
      vertex -34.101253509521484 73.985832214355469 -7.9860310554504395
    endloop
  endfacet
  facet normal 0 0 0
    outer loop
      vertex -30.210357666015625 77.876724243164062 -7.9860310554504395
      vertex -34.101253509521484 73.985832214355469 -7.9860310554504395
      vertex -30.210357666015625 73.985832214355469 -11.876925468444824
    endloop
  endfacet
  facet normal 0 0 0
    outer loop
      vertex -30.210357666015625 73.985832214355469 -11.876925468444824
      vertex -34.101253509521484 73.985832214355469 -7.9860310554504395
      vertex -34.101253509521484 77.876724243164062 -11.876925468444824
    endloop
  endfacet
  facet normal 0 0 0
    outer loop
      vertex -62.166091918945312 -73.489730834960938 -36.899711608886719
      vertex -62.166091918945312 -76.873298645019531 -40.283283233642578
      vertex -65.549659729003906 -73.489730834960938 -40.283283233642578
    endloop
  endfacet
  facet normal 0 0 0
    outer loop
      vertex -62.166091918945312 -73.489730834960938 -36.899711608886719
      vertex -65.549659729003906 -73.489730834960938 -40.283283233642578
      vertex -65.549659729003906 -76.873298645019531 -36.899711608886719
    endloop
  endfacet
  facet normal 0 0 0
    outer loop
      vertex -62.166091918945312 -73.489730834960938 -36.899711608886719
      vertex -65.549659729003906 -76.873298645019531 -36.899711608886719
      vertex -62.166091918945312 -76.873298645019531 -40.283283233642578
    endloop
  endfacet
  facet normal 0 0 0
    outer loop
      vertex -62.166091918945312 -76.873298645019531 -40.283283233642578
      vertex -65.549659729003906 -76.873298645019531 -36.899711608886719
      vertex -65.549659729003906 -73.489730834960938 -40.283283233642578
    endloop
  endfacet
  facet normal 0 0 0
    outer loop
      vertex 74.398551940917969 43.037185668945312 83.977790832519531
      vertex 74.398551940917969 41.894474029541016 82.8350830078125
      vertex 73.255844116210938 43.037185668945312 82.8350830078125
    endloop
  endfacet
  facet normal 0 0 0
    outer loop
      vertex 74.398551940917969 43.037185668945312 83.977790832519531
      vertex 73.255844116210938 43.037185668945312 82.8350830078125
      vertex 73.255844116210938 41.894474029541016 83.977790832519531
    endloop
  endfacet
  facet normal 0 0 0
    outer loop
      vertex 74.398551940917969 43.037185668945312 83.977790832519531
      vertex 73.255844116210938 41.894474029541016 83.977790832519531
      vertex 74.398551940917969 41.894474029541016 82.8350830078125
    endloop
  endfacet
  facet normal 0 0 0
    outer loop
      vertex 74.398551940917969 41.894474029541016 82.8350830078125
      vertex 73.255844116210938 41.894474029541016 83.977790832519531
      vertex 73.255844116210938 43.037185668945312 82.8350830078125
    endloop
  endfacet
  facet normal 0 0 0
    outer loop
      vertex -153.08700561523438 -1.1071279048919678 8.9577198028564453
      vertex -153.08700561523438 -2.3441464900970459 7.7207016944885254
      vertex -154.32403564453125 -1.1071279048919678 7.7207016944885254
    endloop
  endfacet
  facet normal 0 0 0
    outer loop
      vertex -153.08700561523438 -1.1071279048919678 8.9577198028564453
      vertex -154.32403564453125 -1.1071279048919678 7.7207016944885254
      vertex -154.32403564453125 -2.3441464900970459 8.9577198028564453
    endloop
  endfacet
  facet normal 0 0 0
    outer loop
      vertex -153.08700561523438 -1.1071279048919678 8.9577198028564453
      vertex -154.32403564453125 -2.3441464900970459 8.9577198028564453
      vertex -153.08700561523438 -2.3441464900970459 7.7207016944885254
    endloop
  endfacet
  facet normal 0 0 0
    outer loop
      vertex -153.08700561523438 -2.3441464900970459 7.7207016944885254
      vertex -154.32403564453125 -2.3441464900970459 8.9577198028564453
      vertex -154.32403564453125 -1.1071279048919678 7.7207016944885254
    endloop
  endfacet
  facet normal 0 0 0
    outer loop
      vertex -37.532001495361328 -68.302978515625 -18.185468673706055
      vertex -37.532001495361328 -72.24951171875 -22.131999969482422
      vertex -41.478534698486328 -68.302978515625 -22.131999969482422
    endloop
  endfacet
  facet normal 0 0 0
    outer loop
      vertex -37.532001495361328 -68.302978515625 -18.185468673706055
      vertex -41.478534698486328 -68.302978515625 -22.131999969482422
      vertex -41.478534698486328 -72.24951171875 -18.185468673706055
    endloop
  endfacet
  facet normal 0 0 0
    outer loop
      vertex -37.532001495361328 -68.302978515625 -18.185468673706055
      vertex -41.478534698486328 -72.24951171875 -18.185468673706055
      vertex -37.532001495361328 -72.24951171875 -22.131999969482422
    endloop
  endfacet
  facet normal 0 0 0
    outer loop
      vertex -37.532001495361328 -72.24951171875 -22.131999969482422
      vertex -41.478534698486328 -72.24951171875 -18.185468673706055
      vertex -41.478534698486328 -68.302978515625 -22.131999969482422
    endloop
  endfacet
  facet normal 0 0 0
    outer loop
      vertex -14.499735832214355 90.420379638671875 78.474929809570312
      vertex -14.499735832214355 86.72393798828125 74.778488159179688
      vertex -18.19618034362793 90.420379638671875 74.778488159179688
    endloop
  endfacet
  facet normal 0 0 0
    outer loop
      vertex -14.499735832214355 90.420379638671875 78.474929809570312
      vertex -18.19618034362793 90.420379638671875 74.778488159179688
      vertex -18.19618034362793 86.72393798828125 78.474929809570312
    endloop
  endfacet
  facet normal 0 0 0
    outer loop
      vertex -14.499735832214355 90.420379638671875 78.474929809570312
      vertex -18.19618034362793 86.72393798828125 78.474929809570312
      vertex -14.499735832214355 86.72393798828125 74.778488159179688
    endloop
  endfacet
  facet normal 0 0 0
    outer loop
      vertex -14.499735832214355 86.72393798828125 74.778488159179688
      vertex -18.19618034362793 86.72393798828125 78.474929809570312
      vertex -18.19618034362793 90.420379638671875 74.778488159179688
    endloop
  endfacet
  facet normal 0 0 0
    outer loop
      vertex -129.94769287109375 41.195762634277344 49.378616333007812
      vertex -129.94769287109375 39.392868041992188 47.575721740722656
      vertex -131.75057983398438 41.195762634277344 47.575721740722656
    endloop
  endfacet
  facet normal 0 0 0
    outer loop
      vertex -129.94769287109375 41.195762634277344 49.378616333007812
      vertex -131.75057983398438 41.195762634277344 47.575721740722656
      vertex -131.75057983398438 39.392868041992188 49.378616333007812
    endloop
  endfacet
  facet normal 0 0 0
    outer loop
      vertex -129.94769287109375 41.195762634277344 49.378616333007812
      vertex -131.75057983398438 39.392868041992188 49.378616333007812
      vertex -129.94769287109375 39.392868041992188 47.575721740722656
    endloop
  endfacet
  facet normal 0 0 0
    outer loop
      vertex -129.94769287109375 39.392868041992188 47.575721740722656
      vertex -131.75057983398438 39.392868041992188 49.378616333007812
      vertex -131.75057983398438 41.195762634277344 47.575721740722656
    endloop
  endfacet
  facet normal 0 0 0
    outer loop
      vertex 56.439910888671875 16.776350021362305 60.853130340576172
      vertex 56.439910888671875 13.833390235900879 57.910171508789062
      vertex 53.496952056884766 16.776350021362305 57.910171508789062
    endloop
  endfacet
  facet normal 0 0 0
    outer loop
      vertex 56.439910888671875 16.776350021362305 60.853130340576172
      vertex 53.496952056884766 16.776350021362305 57.910171508789062
      vertex 53.496952056884766 13.833390235900879 60.853130340576172
    endloop
  endfacet
  facet normal 0 0 0
    outer loop
      vertex 56.439910888671875 16.776350021362305 60.853130340576172
      vertex 53.496952056884766 13.833390235900879 60.853130340576172
      vertex 56.439910888671875 13.833390235900879 57.910171508789062
    endloop
  endfacet
  facet normal 0 0 0
    outer loop
      vertex 56.439910888671875 13.833390235900879 57.910171508789062
      vertex 53.496952056884766 13.833390235900879 60.853130340576172
      vertex 53.496952056884766 16.776350021362305 57.910171508789062
    endloop
  endfacet
  facet normal 0 0 0
    outer loop
      vertex -54.227401733398438 100.00011444091797 82.599418640136719
      vertex -54.227401733398438 98.828147888183594 81.427452087402344
      vertex -55.399372100830078 100.00011444091797 81.427452087402344
    endloop
  endfacet
  facet normal 0 0 0
    outer loop
      vertex -54.227401733398438 100.00011444091797 82.599418640136719
      vertex -55.399372100830078 100.00011444091797 81.427452087402344
      vertex -55.399372100830078 98.828147888183594 82.599418640136719
    endloop
  endfacet
  facet normal 0 0 0
    outer loop
      vertex -54.227401733398438 100.00011444091797 82.599418640136719
      vertex -55.399372100830078 98.828147888183594 82.599418640136719
      vertex -54.227401733398438 98.828147888183594 81.427452087402344
    endloop
  endfacet
  facet normal 0 0 0
    outer loop
      vertex -54.227401733398438 98.828147888183594 81.427452087402344
      vertex -55.399372100830078 98.828147888183594 82.599418640136719
      vertex -55.399372100830078 100.00011444091797 81.427452087402344
    endloop
  endfacet
  facet normal 0 0 0
    outer loop
      vertex 71.334930419921875 -24.2618408203125 69.769737243652344
      vertex 71.334930419921875 -25.989557266235352 68.042022705078125
      vertex 69.607215881347656 -24.2618408203125 68.042022705078125
    endloop
  endfacet
  facet normal 0 0 0
    outer loop
      vertex 71.334930419921875 -24.2618408203125 69.769737243652344
      vertex 69.607215881347656 -24.2618408203125 68.042022705078125
      vertex 69.607215881347656 -25.989557266235352 69.769737243652344
    endloop
  endfacet
  facet normal 0 0 0
    outer loop
      vertex 71.334930419921875 -24.2618408203125 69.769737243652344
      vertex 69.607215881347656 -25.989557266235352 69.769737243652344
      vertex 71.334930419921875 -25.989557266235352 68.042022705078125
    endloop
  endfacet
  facet normal 0 0 0
    outer loop
      vertex 71.334930419921875 -25.989557266235352 68.042022705078125
      vertex 69.607215881347656 -25.989557266235352 69.769737243652344
      vertex 69.607215881347656 -24.2618408203125 68.042022705078125
    endloop
  endfacet
  facet normal 0 0 0
    outer loop
      vertex -13.828672409057617 -91.149192810058594 20.273891448974609
      vertex -13.828672409057617 -93.314361572265625 18.108726501464844
      vertex -15.993838310241699 -91.149192810058594 18.108726501464844
    endloop
  endfacet
  facet normal 0 0 0
    outer loop
      vertex -13.828672409057617 -91.149192810058594 20.273891448974609
      vertex -15.993838310241699 -91.149192810058594 18.108726501464844
      vertex -15.993838310241699 -93.314361572265625 20.273891448974609
    endloop
  endfacet
  facet normal 0 0 0
    outer loop
      vertex -13.828672409057617 -91.149192810058594 20.273891448974609
      vertex -15.993838310241699 -93.314361572265625 20.273891448974609
      vertex -13.828672409057617 -93.314361572265625 18.108726501464844
    endloop
  endfacet
  facet normal 0 0 0
    outer loop
      vertex -13.828672409057617 -93.314361572265625 18.108726501464844
      vertex -15.993838310241699 -93.314361572265625 20.273891448974609
      vertex -15.993838310241699 -91.149192810058594 18.108726501464844
    endloop
  endfacet
  facet normal 0 0 0
    outer loop
      vertex 87.150650024414062 31.218271255493164 -42.939949035644531
      vertex 87.150650024414062 29.020088195800781 -45.138130187988281
      vertex 84.952468872070312 31.218271255493164 -45.138130187988281
    endloop
  endfacet
  facet normal 0 0 0
    outer loop
      vertex 87.150650024414062 31.218271255493164 -42.939949035644531
      vertex 84.952468872070312 31.218271255493164 -45.138130187988281
      vertex 84.952468872070312 29.020088195800781 -42.939949035644531
    endloop
  endfacet
  facet normal 0 0 0
    outer loop
      vertex 87.150650024414062 31.218271255493164 -42.939949035644531
      vertex 84.952468872070312 29.020088195800781 -42.939949035644531
      vertex 87.150650024414062 29.020088195800781 -45.138130187988281
    endloop
  endfacet
  facet normal 0 0 0
    outer loop
      vertex 87.150650024414062 29.020088195800781 -45.138130187988281
      vertex 84.952468872070312 29.020088195800781 -42.939949035644531
      vertex 84.952468872070312 31.218271255493164 -45.138130187988281
    endloop
  endfacet
  facet normal 0 0 0
    outer loop
      vertex -42.253086090087891 62.577098846435547 74.022682189941406
      vertex -42.253086090087891 61.433387756347656 72.878974914550781
      vertex -43.396797180175781 62.577098846435547 72.878974914550781
    endloop
  endfacet
  facet normal 0 0 0
    outer loop
      vertex -42.253086090087891 62.577098846435547 74.022682189941406
      vertex -43.396797180175781 62.577098846435547 72.878974914550781
      vertex -43.396797180175781 61.433387756347656 74.022682189941406
    endloop
  endfacet
  facet normal 0 0 0
    outer loop
      vertex -42.253086090087891 62.577098846435547 74.022682189941406
      vertex -43.396797180175781 61.433387756347656 74.022682189941406
      vertex -42.253086090087891 61.433387756347656 72.878974914550781
    endloop
  endfacet
  facet normal 0 0 0
    outer loop
      vertex -42.253086090087891 61.433387756347656 72.878974914550781
      vertex -43.396797180175781 61.433387756347656 74.022682189941406
      vertex -43.396797180175781 62.577098846435547 72.878974914550781
    endloop
  endfacet
endsolid mold_insert_scan
